<?xml version="1.0" encoding="iso-8859-1"?>
<!-- Generator: Adobe Illustrator 19.0.0, SVG Export Plug-In . SVG Version: 6.00 Build 0)  -->
<svg version="1.1" id="Capa_1" xmlns="http://www.w3.org/2000/svg" xmlns:xlink="http://www.w3.org/1999/xlink" x="0px" y="0px"
	 viewBox="0 0 512 512" style="enable-background:new 0 0 512 512;" xml:space="preserve">
<path style="fill:#7D2E16;" d="M256,171.604l143.558,317.89h28.241c21.213-32.32,33.564-70.979,33.564-112.527
	C461.363,263.548,369.419,171.604,256,171.604z"/>
<path style="fill:#924630;" d="M256,171.604c-113.419,0-205.363,91.944-205.363,205.363c0,41.549,12.351,80.207,33.564,112.527
	h315.357c17.725-32.32,28.046-70.979,28.046-112.527C427.604,263.548,350.774,171.604,256,171.604z"/>
<path style="fill:#4B7A2F;" d="M433.231,410.725l16.879,78.769h33.758v-28.132C483.868,433.396,461.197,410.725,433.231,410.725z"/>
<path style="fill:#619243;" d="M433.231,410.725c-19.071,0-35.671,10.547-44.308,26.121c-8.636-15.574-25.237-26.121-44.308-26.121
	c-19.071,0-35.671,10.547-44.308,26.121c-8.636-15.574-25.237-26.121-44.308-26.121c-19.071,0-35.671,10.547-44.308,26.121
	c-8.636-15.574-25.237-26.121-44.308-26.121s-35.671,10.547-44.308,26.121c-8.636-15.574-25.237-26.121-44.308-26.121
	c-27.966,0-50.637,22.671-50.637,50.637v28.132H450.11v-28.132C450.11,433.396,442.553,410.725,433.231,410.725z"/>
<path style="fill:#CCC9C0;" d="M466.989,472.615L438.857,512h33.758c9.284,0,18.965-7.303,21.516-16.23l6.616-23.155H466.989z"/>
<path style="fill:#E8E5DA;" d="M460.374,495.77l6.616-23.155H11.253l6.615,23.155C20.419,504.697,30.101,512,39.385,512h399.473
	C448.141,512,457.823,504.697,460.374,495.77z"/>
<path style="fill:#A86B5A;" d="M397.607,329.555l37.466-99.768l1.51-16.265L277.424,355.543c28.564,28.564,74.876,28.564,103.44,0
	C388.485,347.921,394.052,339.03,397.607,329.555z"/>
<path style="fill:#BE9083;" d="M356.992,331.672c7.622-7.622,13.957-15.746,18.878-23.856l51.844-85.39l0.021-0.056l8.848-8.848
	l1.753-18.891l-35.156,3.263l-99.768,37.466c-9.475,3.554-18.367,9.121-25.988,16.743c-28.564,28.564-28.564,74.876,0,103.44
	C292.804,370.924,328.428,360.238,356.992,331.672z"/>
<path style="fill:#CCC9C0;" d="M505.853,183.378c0-8.829-5.096-16.449-12.497-20.136l-49.287,27.799l-16.334,31.33l-0.021,0.056
	l7.328,7.328l23.87-23.87h24.436C495.776,205.884,505.853,195.808,505.853,183.378z"/>
<path style="fill:#E8E5DA;" d="M427.734,222.371l23.832-23.832l18.798-5.639c9.56-2.868,19.637-12.944,22.506-22.506
	c0.83-2.769,0.946-5.177,0.486-7.151c-3.018-1.503-6.408-2.37-10.008-2.37c-1.525,0-6.009,0-11.253,0c0-5.244,0-9.728,0-11.253
	c0-12.43-10.076-22.506-22.505-22.506s-22.505,10.077-22.505,22.506v24.436l-23.87,23.87l24.501,24.501L427.734,222.371z"/>
<path style="fill:#CCC9C0;" d="M503.56,481.055H8.44c-4.662,0-8.44-3.778-8.44-8.44s3.778-8.44,8.44-8.44H503.56
	c4.662,0,8.44,3.778,8.44,8.44S508.222,481.055,503.56,481.055z"/>
<g>
	<path style="fill:#BE9083;" d="M230.681,146.286c-4.662,0-8.44-3.778-8.44-8.44c0-12.853,3.497-19.556,6.584-25.471
		c2.608-4.998,4.669-8.948,4.669-17.661c0-8.714-2.06-12.664-4.669-17.665c-3.086-5.914-6.584-12.619-6.584-25.473
		s3.497-19.558,6.584-25.473c2.608-5.001,4.669-8.95,4.669-17.665c0-4.662,3.778-8.44,8.44-8.44s8.44,3.778,8.44,8.44
		c0,12.853-3.497,19.557-6.584,25.472c-2.608,5.001-4.669,8.95-4.669,17.666s2.06,12.665,4.669,17.666
		c3.086,5.914,6.584,12.619,6.584,25.472s-3.497,19.556-6.584,25.471c-2.608,4.998-4.669,8.948-4.669,17.661
		C239.121,142.508,235.343,146.286,230.681,146.286z"/>
	<path style="fill:#BE9083;" d="M298.198,146.286c-4.662,0-8.44-3.778-8.44-8.44c0-12.853,3.497-19.556,6.584-25.471
		c2.608-4.998,4.669-8.948,4.669-17.661c0-8.714-2.06-12.664-4.669-17.665c-3.086-5.914-6.584-12.619-6.584-25.473
		s3.497-19.558,6.584-25.473c2.608-5.001,4.669-8.95,4.669-17.665c0-4.662,3.778-8.44,8.44-8.44s8.44,3.778,8.44,8.44
		c0,12.853-3.497,19.557-6.584,25.472c-2.608,5.001-4.669,8.95-4.669,17.666s2.06,12.665,4.669,17.666
		c3.086,5.914,6.584,12.619,6.584,25.472s-3.497,19.556-6.584,25.471c-2.608,4.998-4.669,8.948-4.669,17.661
		C306.637,142.508,302.86,146.286,298.198,146.286z"/>
</g>
<g>
</g>
<g>
</g>
<g>
</g>
<g>
</g>
<g>
</g>
<g>
</g>
<g>
</g>
<g>
</g>
<g>
</g>
<g>
</g>
<g>
</g>
<g>
</g>
<g>
</g>
<g>
</g>
<g>
</g>
</svg>
